# xmcd
#
# Track frame offsets: 
#        150
#        11382
#        26170
#        43517
#        57635
#        73852
#        85415
#        102855
#        122007
#        138237
#
# Disc length: 2061 seconds
#
# Revision: 4
# Processed by: cddbd v1.5.1PL0 Copyright (c) Steve Scherf et al.
# Submitted via: ExactAudioCopy v0.95b3
#
DISCID=87080b0a
DTITLE=Various Artist - Country Super Hits
DYEAR=1994
DGENRE=Country
TTITLE0=Conway Twitty - Hello Darlin'
TTITLE1=George Jones - He Stopped Loving Her Today
TTITLE2=Ricky Skaggs - Country Boy
TTITLE3=David Allan Coe - The Ride
TTITLE4=Charlie Daniels - The Devil Went Down To Georgia
TTITLE5=Willie Nelson - On The Road Again
TTITLE6=Vern Gosden - Chiseled In Stone
TTITLE7=Merle Haggard - Are The Good Times Really Over
TTITLE8=Exile - Kiss You All Over
TTITLE9=Shenandoah - Next To You, Next To Me
EXTD=
EXTT0=Conway Twitty
EXTT1=George Jones
EXTT2=Ricky Scaggs
EXTT3=Davis Allan Coe
EXTT4=Charlie Daniels
EXTT5=Willie Nelson
EXTT6=Vern Gosdin
EXTT7=Merle Haggard
EXTT8=Exile
EXTT9=Shenandoah
PLAYORDER=
